<?xml version="1.0" encoding="utf-8"?>
<!-- Generator: Adobe Illustrator 26.0.3, SVG Export Plug-In . SVG Version: 6.00 Build 0)  -->
<svg version="1.1" id="Layer_1" xmlns="http://www.w3.org/2000/svg" xmlns:xlink="http://www.w3.org/1999/xlink" x="0px" y="0px"
	 viewBox="0 0 2048 448" style="enable-background:new 0 0 2048 448;" xml:space="preserve">
<g>
	<path d="M107.5,351h184.8h110.9l0,0L255.3,94.9L107.5,351z M121.4,343l133.9-232l87.8,152l-46.2,80H121.4z"/>
	<path d="M595.8,282.9c-7-6.3-18.2-11.3-33.5-15.1l-17.5-4.5c-12.8-3.2-22.1-7.2-28-12.1c-5.9-4.9-8.8-11.2-8.8-19
		c0-9.8,4.1-17.9,12.3-24.3c8.2-6.4,18.2-9.6,30.2-9.6c12.3,0,22.7,3.1,31,9.2c8.3,6.1,12.8,13.9,13.3,23.4h8.6
		c-0.5-11.6-5.7-21.3-15.7-29c-9.9-7.7-22.3-11.5-37-11.5c-14.4,0-26.6,4-36.6,12c-9.9,8-14.9,18-14.9,30.2c0,9.8,3.4,17.8,10.2,24
		c6.8,6.2,17.5,11.2,32.1,14.9l18.6,4.6c13.2,3.3,22.8,7.6,28.6,12.6c5.9,5.1,8.8,11.7,8.8,19.9c0,10.3-4.2,18.8-12.7,25.5
		c-8.5,6.7-19.3,10.1-32.6,10.1c-13.7,0-25-3.4-34.1-10.1c-9.1-6.8-13.9-15.5-14.6-26.1h-8.6c0.7,13.1,6.2,23.7,16.7,31.9
		s23.8,12.3,39.8,12.3c16.3,0,29.6-4.1,39.5-12.3c10.1-8.2,15.1-18.8,15.1-31.9C606.3,297.6,602.8,289.2,595.8,282.9z"/>
	<polygon points="743,193 624,193 624,201 679,201 679,351 688,351 688,201 743,201 	"/>
	<path d="M796.5,193l-60.2,158h9.1l19.7-53h71.5l19.8,53h9l-60.2-158C805.2,193,796.5,193,796.5,193z M768.2,290l32.3-86h0.5
		l32.4,86H768.2z"/>
	<polygon points="859,201 914,201 914,351 923,351 923,201 978,201 978,193 859,193 	"/>
	<rect x="1005" y="193" width="9" height="158"/>
	<path d="M1115.8,198.1c13.7,0,25.5,4.3,35.7,12.9c10.2,8.6,16.1,19.2,17.8,32h8.7c-1.7-15-8.5-27.7-20.3-37.8
		c-11.9-10.2-25.8-15.1-42-15.1c-21.3,0-38.2,7.3-50.8,21.8c-12.6,14.6-18.8,34.1-18.8,58.8c0,25.1,6.3,45.1,18.9,60.1
		c12.7,14.9,29.5,22.3,50.7,22.3c16.7,0,30.9-4.6,42.3-13.9c11.5-9.2,18-21.3,19.9-36.3h-8.7c-1.7,12.6-7.5,22.7-17.5,30.5
		c-10,7.7-22,11.6-36.1,11.6c-18.5,0-33.3-6.7-44.3-20.1c-11-13.5-16.5-31.5-16.5-54.1c0-22.2,5.5-39.9,16.4-52.9
		C1082.4,204.6,1097.1,198.1,1115.8,198.1z"/>
	<path d="M1359.3,282.9c-7-6.3-18.2-11.3-33.5-15.1l-17.5-4.5c-12.8-3.2-22.1-7.2-28-12.1c-5.9-4.9-8.8-11.2-8.8-19
		c0-9.8,4.1-17.9,12.3-24.3c8.2-6.4,18.2-9.6,30.2-9.6c12.3,0,22.7,3.1,31,9.2c8.3,6.1,12.8,13.9,13.3,23.4h8.6
		c-0.5-11.6-5.7-21.3-15.7-29c-9.9-7.7-22.3-11.5-37-11.5c-14.4,0-26.6,4-36.6,12c-9.9,8-14.9,18-14.9,30.2c0,9.8,3.4,17.8,10.2,24
		s17.5,11.2,32.1,14.9l18.6,4.6c13.2,3.3,22.8,7.6,28.6,12.6c5.9,5.1,8.8,11.7,8.8,19.9c0,10.3-4.2,18.8-12.7,25.5
		c-8.5,6.7-19.3,10.1-32.6,10.1c-13.7,0-25-3.4-34.1-10.1c-9.1-6.8-13.9-15.5-14.6-26.1h-8.6c0.7,13.1,6.2,23.7,16.7,31.9
		c10.5,8.2,23.8,12.3,39.8,12.3c16.3,0,29.6-4.1,39.5-12.3c10.1-8.2,15.1-18.8,15.1-31.9C1369.8,297.6,1366.3,289.2,1359.3,282.9z"
		/>
	<polygon points="1510,266 1410,266 1410,193 1402,193 1402,351 1411,351 1411,274 1510,274 1510,351 1519,351 1519,193 1510,193 	
		"/>
	<path d="M1606.4,193l-60.2,158h9.1l19.7-53h71.5l19.8,53h9l-60.1-158C1615.2,193,1606.4,193,1606.4,193z M1578.1,290l32.3-86h0.5
		l32.4,86H1578.1z"/>
	<path d="M1794.9,266.6c6.5-7.8,9.7-17.3,9.7-28.7c0-13.9-4.5-24.9-13.6-33c-9.1-8.1-21.4-12.1-37-11.9h-51v157h9v-67h41.9
		c2.2,0,4-0.1,5.5-0.3l39.3,67.3h10l-40.6-68.4C1779.5,279.2,1788.5,274.2,1794.9,266.6z M1753.3,276H1711v-75h41.9
		c13.3,0,23.8,3.3,31.4,9.9c7.6,6.6,11.4,15.8,11.4,27.6c0,11.6-3.8,20.8-11.3,27.5C1777,272.7,1766.7,276,1753.3,276z"/>
	<path d="M1926.4,205.8c-9.2-8.6-21.5-12.8-36.7-12.8H1839v158h9v-64h41.6c15.4,0,27.6-4.3,36.8-12.8c9.2-8.5,13.8-19.9,13.8-34.2
		C1940.2,225.8,1935.7,214.3,1926.4,205.8z M1919.6,268.6c-7.7,7-18.2,10.4-31.5,10.4H1848v-78h40.1c13.3,0,23.8,3.5,31.5,10.4
		c7.7,7,11.6,16.5,11.6,28.6S1927.3,261.6,1919.6,268.6z"/>
</g>
</svg>
