<?xml version="1.0" encoding="utf-8"?>
<!-- Generator: Adobe Illustrator 26.0.3, SVG Export Plug-In . SVG Version: 6.00 Build 0)  -->
<svg version="1.1" id="Layer_1" xmlns="http://www.w3.org/2000/svg" xmlns:xlink="http://www.w3.org/1999/xlink" x="0px" y="0px"
	 viewBox="0 0 768 1027" style="enable-background:new 0 0 768 1027;" xml:space="preserve">
<style type="text/css">
	.st0{fill:#FFFFFF;}
</style>
<g>
	<path class="st0" d="M191.5,713.2c-5.5,4.2-12.3,6.2-20.8,6.2c-8.8,0-16.2-2.2-22-6.3s-9-9.7-9.7-16.5h-10.8
		c0.5,9.7,4.7,17.5,12.3,23.5c7.7,6,17.3,9,29,9c12.5,0,22.3-3,29.8-9c7.5-6,11.2-13.8,11.2-23.8c0-7.8-2.5-14-7.5-18.7
		s-13.3-8.5-24.7-11.3l-12.2-3.2c-8.3-2.2-14.3-4.7-18-7.8c-3.7-3.2-5.5-7-5.5-11.8c0-6.2,2.5-11.3,7.7-15.2s11.7-5.8,19.5-5.8
		c8,0,14.7,2,19.8,5.8c5.2,3.8,8,9,8.5,15.3h10.7c-0.3-9-4.2-16.3-11.3-22.2c-7.2-5.8-16.3-8.7-27.3-8.7c-11.2,0-20.3,3-27.7,8.8
		c-7.3,5.8-11,13.3-11,22.3c0,7.3,2.3,13.3,7.2,18c4.8,4.7,12.5,8.3,23,11l14,3.7c8.3,2.2,14.5,4.8,18.3,8.2
		c3.8,3.3,5.7,7.7,5.7,12.8C199.5,703.8,196.7,709,191.5,713.2z"/>
	<polygon class="st0" points="263,728.5 274,728.5 274,624.5 311,624.5 311,614.5 226,614.5 226,624.5 263,624.5 	"/>
	<path class="st0" d="M391.9,727.5h12l-42.3-113h-10.7l-42.3,113h12l12.3-34h46.6L391.9,727.5z M335.8,683.5l20.2-56h0.5l20.2,56
		H335.8z"/>
	<polygon class="st0" points="486,614.5 401,614.5 401,624.5 438,624.5 438,728.5 449,728.5 449,624.5 486,624.5 	"/>
	<rect x="508" y="614.5" class="st0" width="11" height="113"/>
	<path class="st0" d="M617.3,713.2c-6.4,4.6-14.2,6.9-23.3,6.9c-12.1,0-21.9-4.4-29-13.3c-7.1-8.9-10.8-20.7-10.8-35.7
		c0-14.8,3.5-26.6,10.8-35.4c7.2-8.8,16.9-13.1,29-13.1c8.8,0,16.5,2.5,23.1,7.8s10.6,12,12.3,20.2h10.8c-1-7.2-3.7-13.8-7.9-19.7
		s-9.8-10.3-16.4-13.5c-6.6-3.2-14-4.9-21.9-4.9c-15.5,0-27.8,5.2-37.1,15.8c-9.3,10.6-13.8,24.8-13.8,42.7c0,18,4.6,32.4,13.8,43.2
		c9.3,10.8,21.6,16,37.1,16c12.3,0,22.8-3.2,30.9-9.4c8.1-6.2,13.3-15,15.3-26.1h-10.8C627.9,702.3,623.9,708.5,617.3,713.2z"/>
	<path class="st0" d="M178.2,859.2L166,856c-8.3-2.2-14.3-4.7-18-7.8c-3.7-3.2-5.5-7-5.5-11.8c0-6.2,2.5-11.3,7.7-15.2
		c5.2-3.8,11.7-5.8,19.5-5.8c8,0,14.7,2,19.8,5.8c5.2,3.8,8,9,8.5,15.3h10.7c-0.3-9-4.2-16.3-11.3-22.2s-16.3-8.7-27.3-8.7
		c-11.2,0-20.3,3-27.7,8.8s-11,13.3-11,22.3c0,7.3,2.3,13.3,7.2,18c4.8,4.7,12.5,8.3,23,11l14,3.7c8.3,2.2,14.5,4.8,18.3,8.2
		c3.8,3.3,5.7,7.7,5.7,12.8c0,6.3-2.7,11.7-8.2,15.7c-5.5,4-12.3,6.2-20.8,6.2c-8.8,0-16.2-2.2-22-6.3c-5.8-4.2-9-9.7-9.7-16.5
		h-10.7c0.5,9.7,4.7,17.5,12.3,23.5c7.7,6,17.3,9,29,9c12.5,0,22.3-3,29.8-9s11.2-13.8,11.2-23.8c0-7.8-2.5-14-7.5-18.7
		C198,865.8,189.5,862,178.2,859.2z"/>
	<polygon class="st0" points="314,857.5 248,857.5 248,807.5 237,807.5 237,920.5 248,920.5 248,867.5 314,867.5 314,920.5 
		325,920.5 325,807.5 314,807.5 	"/>
	<path class="st0" d="M387.5,807.5l-42.7,114h11.4l12.7-35h48l12.7,35H441l-42.7-114H387.5z M372.5,876.5l20.2-56h0.5l20.2,56H372.5
		z"/>
	<path class="st0" d="M530.9,861.2c4.3-5.7,6.4-12.5,6.4-20.6c0-10-3.3-18.1-9.9-24.1s-15.4-9-26.4-9h-40v113h11v-46h29.2h1.7
		l26.8,46h10.7l-27.2-47.8C520.8,870.7,526.7,867,530.9,861.2z M500.6,865.5H472v-48h28.1c8.3,0,14.8,2.2,19.5,6.4
		c4.7,4.2,7.1,10.1,7.1,17.7c0,7.6-2.4,13.5-6.9,17.7C515.3,863.5,509.1,865.5,500.6,865.5z"/>
	<path class="st0" d="M604,807.5h-39v113h11v-42h28c10.8,0,19.7-3.2,26.5-9.8c6.7-6.6,10.1-15.2,10.1-25.8s-3.4-19.2-10.1-25.6
		S615,807.5,604,807.5z M621.4,861.7c-5,4.5-11.6,6.8-20.3,6.8H576v-51h25.1c8.6,0,15.4,2.3,20.3,6.8s7.3,10.8,7.3,18.8
		C628.7,851.1,626,857,621.4,861.7z"/>
	<path class="st0" d="M631.9,533.5l-247.7-429l-247.9,429H446H631.9z M153.8,523.5L384,124.6l149,258.1l-81.3,140.8H153.8z"/>
</g>
</svg>
