<?xml version="1.0" encoding="utf-8"?>
<!-- Generator: Adobe Illustrator 26.0.3, SVG Export Plug-In . SVG Version: 6.00 Build 0)  -->
<svg version="1.1" id="Layer_1" xmlns="http://www.w3.org/2000/svg" xmlns:xlink="http://www.w3.org/1999/xlink" x="0px" y="0px"
	 viewBox="0 0 320 512" style="enable-background:new 0 0 320 512;" xml:space="preserve">
<style type="text/css">
	.st0{fill:#FFFFFF;}
</style>
<g>
	<path class="st0" d="M40.1,380.8c-3.4,2.6-7.7,3.9-13.1,3.9c-5.5,0-10.1-1.4-13.8-4s-5.6-6.1-6.1-10.3H0.4c0.3,6.1,2.9,11,7.7,14.7
		s10.9,5.6,18.2,5.6c7.8,0,14-1.9,18.7-5.6s7-8.7,7-14.9c0-4.9-1.6-8.8-4.7-11.7c-3.1-2.9-8.4-5.3-15.5-7.1l-7.6-2
		c-5.2-1.4-9-2.9-11.3-4.9c-2.3-2-3.4-4.4-3.4-7.4c0-3.9,1.6-7.1,4.8-9.5s7.3-3.7,12.2-3.7c5,0,9.2,1.3,12.4,3.7s5,5.6,5.3,9.6H51
		c-0.2-5.6-2.6-10.2-7.1-13.9c-4.5-3.7-10.2-5.4-17.1-5.4c-7,0-12.7,1.9-17.3,5.5c-4.6,3.7-6.9,8.4-6.9,14c0,4.6,1.5,8.4,4.5,11.3
		s7.8,5.2,14.4,6.9l8.8,2.3c5.2,1.4,9.1,3,11.5,5.1c2.4,2.1,3.6,4.8,3.6,8C45.1,374.9,43.4,378.2,40.1,380.8z"/>
	<polygon class="st0" points="84.9,389.7 91.7,389.7 91.7,325 114.9,325 114.9,319.1 61.6,319.1 61.6,325 84.9,325 	"/>
	<path class="st0" d="M165.3,389.7h7.1L146,319.1h-6.7l-26.4,70.6h7.1l7.8-21.6h29.7L165.3,389.7z M129.9,362.1l12.6-35h0.3l12.6,35
		H129.9z"/>
	<polygon class="st0" points="223.8,319.1 170.5,319.1 170.5,325 193.8,325 193.8,389.7 200.6,389.7 200.6,325 223.8,325 	"/>
	<rect x="237.4" y="319.1" class="st0" width="6.7" height="70.6"/>
	<path class="st0" d="M305.3,380.3c-4,2.8-8.8,4.3-14.4,4.3c-7.5,0-13.6-2.7-18-8.2c-4.4-5.5-6.7-12.8-6.7-22.1
		c0-9.2,2.2-16.5,6.7-21.9c4.5-5.4,10.4-8.1,18-8.1c5.4,0,10.2,1.6,14.3,4.8c4.1,3.2,6.6,7.4,7.6,12.5h6.7
		c-0.6-4.5-2.3-8.6-4.9-12.2s-6.1-6.4-10.1-8.4c-4.1-2-8.7-3-13.6-3c-9.6,0-17.2,3.2-23,9.8c-5.7,6.6-8.6,15.4-8.6,26.4
		c0,11.2,2.8,20,8.6,26.7c5.7,6.7,13.4,9.9,23,9.9c7.6,0,14.1-2,19.1-5.8s8.2-9.3,9.5-16.2h-6.7
		C311.8,373.5,309.3,377.3,305.3,380.3z"/>
	<path class="st0" d="M31.8,471.6l-7.6-2c-5.2-1.4-9-2.9-11.3-4.9c-2.3-2-3.4-4.4-3.4-7.4c0-3.9,1.6-7.1,4.8-9.5
		c3.2-2.4,7.3-3.7,12.2-3.7c5,0,9.2,1.3,12.4,3.7s5,5.6,5.3,9.6h6.7c-0.2-5.6-2.6-10.2-7.1-13.9s-10.2-5.4-17.1-5.4
		c-7,0-12.7,1.9-17.3,5.5s-6.9,8.4-6.9,14c0,4.6,1.5,8.4,4.5,11.3c3,2.9,7.8,5.2,14.4,6.9l8.8,2.3c5.2,1.4,9.1,3,11.5,5.1
		c2.4,2.1,3.6,4.8,3.6,8c0,4-1.7,7.3-5.1,9.8s-7.7,3.9-13.1,3.9c-5.5,0-10.1-1.4-13.8-4s-5.6-6.1-6.1-10.3H0.4
		c0.3,6.1,2.9,11,7.7,14.7C13,509.1,19,511,26.3,511c7.8,0,14-1.9,18.7-5.6c4.7-3.8,7-8.7,7-14.9c0-4.9-1.6-8.8-4.7-11.7
		S38.9,473.4,31.8,471.6z"/>
	<polygon class="st0" points="116.4,470.6 75.1,470.6 75.1,439.3 68.3,439.3 68.3,509.9 75.1,509.9 75.1,476.9 116.4,476.9 
		116.4,509.9 123.1,509.9 123.1,439.3 116.4,439.3 	"/>
	<path class="st0" d="M162.2,439.3l-26.4,70.6h7.1l7.8-21.6h29.7l7.8,21.6h7.1l-26.4-70.6H162.2z M152.8,482.5l12.6-35h0.3l12.6,35
		H152.8z"/>
	<path class="st0" d="M251.5,472.7c2.7-3.6,4-7.8,4-12.8c0-6.3-2.1-11.3-6.2-15s-9.6-5.6-16.5-5.6h-25v70.6h6.7v-28.9h17.8h1
		l16.3,28.9h7.8l-17-29.9C245.2,478.6,248.9,476.3,251.5,472.7z M232.5,475.1h-17.8v-29.8h17.4c5.1,0,9.2,1.4,12.1,4
		c2.9,2.6,4.4,6.3,4.4,11c0,4.7-1.5,8.4-4.3,11C241.6,473.8,237.7,475.1,232.5,475.1z"/>
	<path class="st0" d="M296.8,439.3h-24v70.6h6.7v-26.6h17.3c6.7,0,12.2-2,16.4-6.1s6.3-9.4,6.3-16c0-6.6-2.1-11.9-6.3-15.9
		S303.6,439.3,296.8,439.3z M308.1,473.1c-3.1,2.8-7.3,4.3-12.7,4.3h-15.8v-32.1h15.8c5.4,0,9.7,1.5,12.7,4.3
		c3,2.8,4.6,6.8,4.6,11.8S311,470.2,308.1,473.1z"/>
	<path class="st0" d="M314.4,268.3L160.1,1L5.7,268.3h193H314.4z M16.5,262.1L160,13.5l92.8,160.8l-50.6,87.7H16.5z"/>
</g>
</svg>
